<svg width="184" height="47" viewBox="0 0 184 47" fill="none" xmlns="http://www.w3.org/2000/svg">
<path d="M7.48 11.824H0.12V6.832C2.12533 6.832 3.72533 6.66133 4.92 6.32C6.15733 5.97867 7.13867 5.424 7.864 4.656C8.58933 3.84533 9.22933 2.69333 9.784 1.2H14.52V46H7.48V11.824ZM38.545 46.64C35.089 46.64 32.4437 45.6587 30.609 43.696C28.7743 41.7333 27.857 38.96 27.857 35.376V11.824C27.857 8.24 28.7743 5.46666 30.609 3.504C32.4437 1.54133 35.089 0.559998 38.545 0.559998C42.001 0.559998 44.6463 1.54133 46.481 3.504C48.3157 5.46666 49.233 8.24 49.233 11.824V35.376C49.233 38.96 48.3157 41.7333 46.481 43.696C44.6463 45.6587 42.001 46.64 38.545 46.64ZM38.545 40.24C40.977 40.24 42.193 38.768 42.193 35.824V11.376C42.193 8.432 40.977 6.96 38.545 6.96C36.113 6.96 34.897 8.432 34.897 11.376V35.824C34.897 38.768 36.113 40.24 38.545 40.24ZM74.484 1.2H84.532L89.012 33.264H89.14L93.62 1.2H103.668V46H97.012V12.08H96.884L91.764 46H85.876L80.756 12.08H80.628V46H74.484V1.2ZM119.481 1.2H129.017L136.313 46H129.273L127.993 37.104V37.232H119.993L118.713 46H112.185L119.481 1.2ZM127.161 31.152L124.025 9.008H123.897L120.825 31.152H127.161ZM151.182 23.088L143.438 1.2H150.862L155.598 15.664H155.726L160.59 1.2H167.246L159.502 23.088L167.63 46H160.206L155.086 30.384H154.958L149.71 46H143.054L151.182 23.088ZM176.407 39.216H183.191V46H176.407V39.216Z" fill="white"/>
</svg>
