<svg width="142" height="47" viewBox="0 0 142 47" fill="none" xmlns="http://www.w3.org/2000/svg">
<path d="M0.496 41.136C0.496 37.936 1.008 35.2053 2.032 32.944C3.056 30.64 4.89067 28.1013 7.536 25.328C10.1387 22.5547 11.9307 20.1867 12.912 18.224C13.936 16.2613 14.448 14.2133 14.448 12.08C14.448 10.16 14.128 8.83733 13.488 8.112C12.8907 7.344 11.9947 6.96 10.8 6.96C8.368 6.96 7.152 8.432 7.152 11.376V16.176H0.496V11.824C0.496 8.19733 1.392 5.424 3.184 3.504C4.976 1.54133 7.57867 0.559998 10.992 0.559998C14.4053 0.559998 17.008 1.54133 18.8 3.504C20.592 5.424 21.488 8.19733 21.488 11.824C21.488 14.5547 20.8267 17.2213 19.504 19.824C18.224 22.4267 15.984 25.4133 12.784 28.784C10.6933 31.0027 9.28533 32.816 8.56 34.224C7.83467 35.5893 7.472 37.0613 7.472 38.64V39.6H20.848V46H0.496V41.136ZM41.545 46.64C38.089 46.64 35.4437 45.6587 33.609 43.696C31.7743 41.7333 30.857 38.96 30.857 35.376V11.824C30.857 8.24 31.7743 5.46666 33.609 3.504C35.4437 1.54133 38.089 0.559998 41.545 0.559998C45.001 0.559998 47.6463 1.54133 49.481 3.504C51.3157 5.46666 52.233 8.24 52.233 11.824V35.376C52.233 38.96 51.3157 41.7333 49.481 43.696C47.6463 45.6587 45.001 46.64 41.545 46.64ZM41.545 40.24C43.977 40.24 45.193 38.768 45.193 35.824V11.376C45.193 8.432 43.977 6.96 41.545 6.96C39.113 6.96 37.897 8.432 37.897 11.376V35.824C37.897 38.768 39.113 40.24 41.545 40.24ZM62.114 1.2H72.162L76.642 33.264H76.77L81.25 1.2H91.298V46H84.642V12.08H84.514L79.394 46H73.506L68.386 12.08H68.258V46H62.114V1.2ZM101.672 1.2H108.712V46H101.672V1.2ZM119.104 1.2H127.936L134.784 28.016H134.912V1.2H141.184V46H133.952L125.504 13.296H125.376V46H119.104V1.2Z" fill="white"/>
</svg>
