<svg width="92" height="96" viewBox="0 0 92 96" fill="none" xmlns="http://www.w3.org/2000/svg">
<g id="Group 217">
<g id="Group 216">
<path id="path14" d="M91.5385 96H31.0677V27.4487H91.5385V96Z" fill="#E82C4F"/>
<path id="path16" d="M47.8098 45.0421H62.6766C66.8701 45.0421 70.16 46.2819 72.3038 48.3792C74.0655 50.1892 75.0645 52.6684 75.0645 55.5767V55.6705C75.0645 61.1523 71.7808 64.4424 67.1051 65.7759L76.1153 78.4074H69.2025L61.0082 66.7747H53.672V78.4074H47.8098V45.0421ZM62.2476 61.581C66.4418 61.581 69.1079 59.3895 69.1079 56.0055V55.9115C69.1079 52.3334 66.5357 50.383 62.2006 50.383H53.672V61.581H62.2476" fill="white"/>
</g>
<path id="path18" d="M0 -1.44867e-05V27.4198H31.0638V-1.44867e-05H0Z" fill="white"/>
</g>
</svg>
